# xmcd CD database file
#
# Track frame offsets:
#	150
#	20649
#	50811
#	68255
#
# Disc length: 1181 seconds
#
# Revision: 0
# Processed by: cddbd v1.5.1PL0 Copyright (c) Steve Scherf et al.
# Submitted via: CDex 1.51
#
DISCID=2e049b04
DTITLE=高橋瞳 - 僕たちの行方
DYEAR=2005
DGENRE=JPop
TTITLE0=僕たちの行方
TTITLE1=風のキリン
TTITLE2=メロディ
TTITLE3=僕たちの行方-instrumental-
EXTD=YEAR: 2005
EXTT0=
EXTT1=
EXTT2=
EXTT3=
PLAYORDER=
